<mxfile host="app.diagrams.net" modified="2021-03-21T09:14:49.040Z" agent="5.0 (Macintosh; Intel Mac OS X 10_15_7) AppleWebKit/537.36 (KHTML, like Gecko) Chrome/89.0.4389.90 Safari/537.36" etag="1NAchpV4zwQSk1WN4V95" version="14.4.8" type="github" pages="2">
  <diagram name="Page-1" id="c37626ed-c26b-45fb-9056-f9ebc6bb27b6">
    <mxGraphModel dx="1979" dy="923" grid="1" gridSize="8" guides="1" tooltips="1" connect="1" arrows="1" fold="1" page="1" pageScale="1" pageWidth="1100" pageHeight="850" background="#ffffff" math="0" shadow="0">
      <root>
        <mxCell id="0" />
        <mxCell id="1" parent="0" />
        <mxCell id="EeIF6lA2X2jRS8-VWyb7-6" value="" style="rounded=0;whiteSpace=wrap;html=1;" parent="1" vertex="1">
          <mxGeometry x="302.5" y="536" width="605" height="310" as="geometry" />
        </mxCell>
        <mxCell id="EeIF6lA2X2jRS8-VWyb7-9" value="" style="rounded=0;whiteSpace=wrap;html=1;" parent="1" vertex="1">
          <mxGeometry x="184" y="96" width="300" height="110" as="geometry" />
        </mxCell>
        <mxCell id="EeIF6lA2X2jRS8-VWyb7-12" value="" style="outlineConnect=0;dashed=0;verticalLabelPosition=bottom;verticalAlign=top;align=center;html=1;shape=mxgraph.aws3.bucket;fillColor=#E05243;gradientColor=none;" parent="1" vertex="1">
          <mxGeometry x="280" y="120.25" width="60" height="61.5" as="geometry" />
        </mxCell>
        <mxCell id="EeIF6lA2X2jRS8-VWyb7-13" value="" style="rounded=0;whiteSpace=wrap;html=1;" parent="1" vertex="1">
          <mxGeometry x="302.5" y="224" width="600" height="232" as="geometry" />
        </mxCell>
        <mxCell id="EeIF6lA2X2jRS8-VWyb7-16" value="" style="outlineConnect=0;dashed=0;verticalLabelPosition=bottom;verticalAlign=top;align=center;html=1;shape=mxgraph.aws3.route_53;fillColor=#F58536;gradientColor=none;" parent="1" vertex="1">
          <mxGeometry x="274.75" width="70.5" height="85.5" as="geometry" />
        </mxCell>
        <mxCell id="EeIF6lA2X2jRS8-VWyb7-17" value="Cloud&#xa;DNS" style="html=1;fillColor=#5184F3;strokeColor=none;verticalAlign=top;labelPosition=center;verticalLabelPosition=bottom;align=center;spacingTop=-6;fontSize=11;fontStyle=1;fontColor=#999999;shape=mxgraph.gcp2.hexIcon;prIcon=cloud_dns" parent="1" vertex="1">
          <mxGeometry x="570.25" y="10.5" width="66" height="58.5" as="geometry" />
        </mxCell>
        <mxCell id="EeIF6lA2X2jRS8-VWyb7-18" value="" style="shape=image;html=1;verticalAlign=top;verticalLabelPosition=bottom;labelBackgroundColor=#ffffff;imageAspect=0;aspect=fixed;image=https://cdn1.iconfinder.com/data/icons/windows8_icons_iconpharm/26/cloudflare.png" parent="1" vertex="1">
          <mxGeometry x="736" y="10.5" width="48" height="48" as="geometry" />
        </mxCell>
        <mxCell id="EeIF6lA2X2jRS8-VWyb7-24" value="Private subnet" style="points=[[0,0],[0.25,0],[0.5,0],[0.75,0],[1,0],[1,0.25],[1,0.5],[1,0.75],[1,1],[0.75,1],[0.5,1],[0.25,1],[0,1],[0,0.75],[0,0.5],[0,0.25]];outlineConnect=0;gradientColor=none;html=1;whiteSpace=wrap;fontSize=12;fontStyle=0;shape=mxgraph.aws4.group;grIcon=mxgraph.aws4.group_security_group;grStroke=0;strokeColor=#147EBA;fillColor=#E6F2F8;verticalAlign=top;align=left;spacingLeft=30;fontColor=#147EBA;dashed=0;" parent="1" vertex="1">
          <mxGeometry x="305" y="536" width="600" height="312" as="geometry" />
        </mxCell>
        <mxCell id="EeIF6lA2X2jRS8-VWyb7-27" value="" style="fontColor=#0066CC;verticalAlign=top;verticalLabelPosition=bottom;labelPosition=center;align=center;html=1;outlineConnect=0;fillColor=#CCCCCC;strokeColor=#6881B3;gradientColor=none;gradientDirection=north;strokeWidth=2;shape=mxgraph.networks.virtual_server;" parent="1" vertex="1">
          <mxGeometry x="554.5" y="652" width="110" height="80" as="geometry" />
        </mxCell>
        <mxCell id="EeIF6lA2X2jRS8-VWyb7-28" value="" style="fontColor=#0066CC;verticalAlign=top;verticalLabelPosition=bottom;labelPosition=center;align=center;html=1;outlineConnect=0;fillColor=#CCCCCC;strokeColor=#6881B3;gradientColor=none;gradientDirection=north;strokeWidth=2;shape=mxgraph.networks.virtual_server;" parent="1" vertex="1">
          <mxGeometry x="551.25" y="766" width="110" height="80" as="geometry" />
        </mxCell>
        <mxCell id="EeIF6lA2X2jRS8-VWyb7-29" value="Public subnet" style="points=[[0,0],[0.25,0],[0.5,0],[0.75,0],[1,0],[1,0.25],[1,0.5],[1,0.75],[1,1],[0.75,1],[0.5,1],[0.25,1],[0,1],[0,0.75],[0,0.5],[0,0.25]];outlineConnect=0;gradientColor=none;html=1;whiteSpace=wrap;fontSize=12;fontStyle=0;shape=mxgraph.aws4.group;grIcon=mxgraph.aws4.group_security_group;grStroke=0;strokeColor=#248814;fillColor=#E9F3E6;verticalAlign=top;align=left;spacingLeft=30;fontColor=#248814;dashed=0;" parent="1" vertex="1">
          <mxGeometry x="302.5" y="224" width="601.5" height="232" as="geometry" />
        </mxCell>
        <mxCell id="EeIF6lA2X2jRS8-VWyb7-30" value="" style="fontColor=#0066CC;verticalAlign=top;verticalLabelPosition=bottom;labelPosition=center;align=center;html=1;outlineConnect=0;fillColor=#CCCCCC;strokeColor=#6881B3;gradientColor=none;gradientDirection=north;strokeWidth=2;shape=mxgraph.networks.virtual_server;" parent="1" vertex="1">
          <mxGeometry x="541.5" y="304" width="110" height="88" as="geometry" />
        </mxCell>
        <mxCell id="EeIF6lA2X2jRS8-VWyb7-31" value="" style="endArrow=classic;html=1;" parent="1" source="EeIF6lA2X2jRS8-VWyb7-16" target="EeIF6lA2X2jRS8-VWyb7-12" edge="1">
          <mxGeometry width="50" height="50" relative="1" as="geometry">
            <mxPoint x="592" y="322" as="sourcePoint" />
            <mxPoint x="642" y="272" as="targetPoint" />
          </mxGeometry>
        </mxCell>
        <mxCell id="EeIF6lA2X2jRS8-VWyb7-33" value="" style="endArrow=classic;html=1;" parent="1" source="EeIF6lA2X2jRS8-VWyb7-27" target="EeIF6lA2X2jRS8-VWyb7-28" edge="1">
          <mxGeometry width="50" height="50" relative="1" as="geometry">
            <mxPoint x="610" y="384" as="sourcePoint" />
            <mxPoint x="609" y="400" as="targetPoint" />
          </mxGeometry>
        </mxCell>
        <mxCell id="EeIF6lA2X2jRS8-VWyb7-39" value="" style="outlineConnect=0;dashed=0;verticalLabelPosition=bottom;verticalAlign=top;align=center;html=1;shape=mxgraph.aws3.vpc_peering;fillColor=#F58534;gradientColor=none;" parent="1" vertex="1">
          <mxGeometry x="568.75" y="456" width="69" height="80" as="geometry" />
        </mxCell>
        <mxCell id="EeIF6lA2X2jRS8-VWyb7-41" value="web server 1" style="text;html=1;strokeColor=none;fillColor=none;align=center;verticalAlign=middle;whiteSpace=wrap;rounded=0;" parent="1" vertex="1">
          <mxGeometry x="651.5" y="330" width="108.5" height="20" as="geometry" />
        </mxCell>
        <mxCell id="EeIF6lA2X2jRS8-VWyb7-42" value="app server 2" style="text;html=1;strokeColor=none;fillColor=none;align=center;verticalAlign=middle;whiteSpace=wrap;rounded=0;" parent="1" vertex="1">
          <mxGeometry x="668" y="682" width="92" height="20" as="geometry" />
        </mxCell>
        <mxCell id="EeIF6lA2X2jRS8-VWyb7-43" value="database server 3" style="text;html=1;strokeColor=none;fillColor=none;align=center;verticalAlign=middle;whiteSpace=wrap;rounded=0;" parent="1" vertex="1">
          <mxGeometry x="672" y="782" width="104" height="20" as="geometry" />
        </mxCell>
        <mxCell id="EeIF6lA2X2jRS8-VWyb7-45" value="VPC" style="points=[[0,0],[0.25,0],[0.5,0],[0.75,0],[1,0],[1,0.25],[1,0.5],[1,0.75],[1,1],[0.75,1],[0.5,1],[0.25,1],[0,1],[0,0.75],[0,0.5],[0,0.25]];outlineConnect=0;gradientColor=none;html=1;whiteSpace=wrap;fontSize=12;fontStyle=0;shape=mxgraph.aws4.group;grIcon=mxgraph.aws4.group_vpc;strokeColor=#248814;fillColor=none;verticalAlign=top;align=left;spacingLeft=30;fontColor=#AAB7B8;dashed=0;" parent="1" vertex="1">
          <mxGeometry x="456" y="288" width="300.5" height="128" as="geometry" />
        </mxCell>
        <mxCell id="EeIF6lA2X2jRS8-VWyb7-46" value="" style="image;html=1;image=img/lib/clip_art/networking/Firewall_02_128x128.png" parent="1" vertex="1">
          <mxGeometry x="563.25" y="232" width="80" height="48" as="geometry" />
        </mxCell>
        <mxCell id="EeIF6lA2X2jRS8-VWyb7-47" value="" style="image;html=1;image=img/lib/clip_art/networking/Firewall_02_128x128.png" parent="1" vertex="1">
          <mxGeometry x="568.75" y="544" width="80" height="80" as="geometry" />
        </mxCell>
        <mxCell id="EeIF6lA2X2jRS8-VWyb7-48" value="VPC" style="points=[[0,0],[0.25,0],[0.5,0],[0.75,0],[1,0],[1,0.25],[1,0.5],[1,0.75],[1,1],[0.75,1],[0.5,1],[0.25,1],[0,1],[0,0.75],[0,0.5],[0,0.25]];outlineConnect=0;gradientColor=none;html=1;whiteSpace=wrap;fontSize=12;fontStyle=0;shape=mxgraph.aws4.group;grIcon=mxgraph.aws4.group_vpc;strokeColor=#248814;fillColor=none;verticalAlign=top;align=left;spacingLeft=30;fontColor=#AAB7B8;dashed=0;" parent="1" vertex="1">
          <mxGeometry x="464" y="632" width="440" height="216" as="geometry" />
        </mxCell>
        <mxCell id="EeIF6lA2X2jRS8-VWyb7-51" value="" style="endArrow=classic;html=1;exitX=1;exitY=0.5;exitDx=0;exitDy=0;" parent="1" source="EeIF6lA2X2jRS8-VWyb7-9" target="EeIF6lA2X2jRS8-VWyb7-29" edge="1">
          <mxGeometry width="50" height="50" relative="1" as="geometry">
            <mxPoint x="551.25" y="288" as="sourcePoint" />
            <mxPoint x="601.25" y="238" as="targetPoint" />
            <Array as="points">
              <mxPoint x="603" y="152" />
            </Array>
          </mxGeometry>
        </mxCell>
        <mxCell id="EeIF6lA2X2jRS8-VWyb7-52" value="" style="endArrow=none;html=1;exitX=0.5;exitY=0.84;exitDx=0;exitDy=0;exitPerimeter=0;" parent="1" source="EeIF6lA2X2jRS8-VWyb7-17" edge="1">
          <mxGeometry width="50" height="50" relative="1" as="geometry">
            <mxPoint x="552" y="290" as="sourcePoint" />
            <mxPoint x="602" y="160" as="targetPoint" />
          </mxGeometry>
        </mxCell>
        <mxCell id="EeIF6lA2X2jRS8-VWyb7-53" value="" style="endArrow=classic;html=1;exitX=0.5;exitY=1;exitDx=0;exitDy=0;" parent="1" source="EeIF6lA2X2jRS8-VWyb7-18" edge="1">
          <mxGeometry width="50" height="50" relative="1" as="geometry">
            <mxPoint x="552" y="290" as="sourcePoint" />
            <mxPoint x="602" y="152" as="targetPoint" />
            <Array as="points">
              <mxPoint x="760" y="152" />
              <mxPoint x="602" y="152" />
            </Array>
          </mxGeometry>
        </mxCell>
        <mxCell id="AHNMv3LYL0TswjnnXJQB-1" value="" style="fontColor=#0066CC;verticalAlign=top;verticalLabelPosition=bottom;labelPosition=center;align=center;html=1;outlineConnect=0;fillColor=#CCCCCC;strokeColor=#6881B3;gradientColor=none;gradientDirection=north;strokeWidth=2;shape=mxgraph.networks.virtual_server;" vertex="1" parent="1">
          <mxGeometry x="776" y="760" width="94" height="90" as="geometry" />
        </mxCell>
        <mxCell id="AHNMv3LYL0TswjnnXJQB-2" value="" style="endArrow=classic;html=1;" edge="1" parent="1" source="EeIF6lA2X2jRS8-VWyb7-48">
          <mxGeometry width="50" height="50" relative="1" as="geometry">
            <mxPoint x="648" y="682" as="sourcePoint" />
            <mxPoint x="698" y="632" as="targetPoint" />
          </mxGeometry>
        </mxCell>
        <mxCell id="AHNMv3LYL0TswjnnXJQB-3" value="" style="endArrow=classic;html=1;exitX=0.455;exitY=0.778;exitDx=0;exitDy=0;exitPerimeter=0;" edge="1" parent="1" source="EeIF6lA2X2jRS8-VWyb7-48">
          <mxGeometry width="50" height="50" relative="1" as="geometry">
            <mxPoint x="648" y="682" as="sourcePoint" />
            <mxPoint x="771" y="800" as="targetPoint" />
          </mxGeometry>
        </mxCell>
        <mxCell id="AHNMv3LYL0TswjnnXJQB-6" value="database replica" style="text;html=1;strokeColor=none;fillColor=none;align=center;verticalAlign=middle;whiteSpace=wrap;rounded=0;" vertex="1" parent="1">
          <mxGeometry x="784" y="720" width="72" height="20" as="geometry" />
        </mxCell>
        <mxCell id="AHNMv3LYL0TswjnnXJQB-8" value="vpc peering" style="text;html=1;strokeColor=none;fillColor=none;align=center;verticalAlign=middle;whiteSpace=wrap;rounded=0;" vertex="1" parent="1">
          <mxGeometry x="648.75" y="480" width="40" height="20" as="geometry" />
        </mxCell>
      </root>
    </mxGraphModel>
  </diagram>
  <diagram id="h0sEnd3JYNVnKGPdlY0R" name="Page-2">
    <mxGraphModel dx="2308" dy="1077" grid="1" gridSize="10" guides="1" tooltips="1" connect="1" arrows="1" fold="1" page="1" pageScale="1" pageWidth="827" pageHeight="1169" math="0" shadow="0">
      <root>
        <mxCell id="DsYPTLE4mmZd2FAX2YWv-0" />
        <mxCell id="DsYPTLE4mmZd2FAX2YWv-1" parent="DsYPTLE4mmZd2FAX2YWv-0" />
        <mxCell id="y-bNRI4iz__ci6y5194C-9" value="Private subnet" style="points=[[0,0],[0.25,0],[0.5,0],[0.75,0],[1,0],[1,0.25],[1,0.5],[1,0.75],[1,1],[0.75,1],[0.5,1],[0.25,1],[0,1],[0,0.75],[0,0.5],[0,0.25]];outlineConnect=0;gradientColor=none;html=1;whiteSpace=wrap;fontSize=12;fontStyle=0;shape=mxgraph.aws4.group;grIcon=mxgraph.aws4.group_security_group;grStroke=0;strokeColor=#147EBA;fillColor=#E6F2F8;verticalAlign=top;align=left;spacingLeft=30;fontColor=#147EBA;dashed=0;" parent="DsYPTLE4mmZd2FAX2YWv-1" vertex="1">
          <mxGeometry x="7.2" y="160" width="790" height="570" as="geometry" />
        </mxCell>
        <mxCell id="y-bNRI4iz__ci6y5194C-10" value="" style="fontColor=#0066CC;verticalAlign=top;verticalLabelPosition=bottom;labelPosition=center;align=center;html=1;outlineConnect=0;fillColor=#CCCCCC;strokeColor=#6881B3;gradientColor=none;gradientDirection=north;strokeWidth=2;shape=mxgraph.networks.virtual_server;" parent="DsYPTLE4mmZd2FAX2YWv-1" vertex="1">
          <mxGeometry x="110" y="220" width="110" height="120" as="geometry" />
        </mxCell>
        <mxCell id="y-bNRI4iz__ci6y5194C-11" value="" style="fontColor=#0066CC;verticalAlign=top;verticalLabelPosition=bottom;labelPosition=center;align=center;html=1;outlineConnect=0;fillColor=#CCCCCC;strokeColor=#6881B3;gradientColor=none;gradientDirection=north;strokeWidth=2;shape=mxgraph.networks.virtual_server;" parent="DsYPTLE4mmZd2FAX2YWv-1" vertex="1">
          <mxGeometry x="340" y="220" width="110" height="120" as="geometry" />
        </mxCell>
        <mxCell id="y-bNRI4iz__ci6y5194C-12" value="" style="fontColor=#0066CC;verticalAlign=top;verticalLabelPosition=bottom;labelPosition=center;align=center;html=1;outlineConnect=0;fillColor=#CCCCCC;strokeColor=#6881B3;gradientColor=none;gradientDirection=north;strokeWidth=2;shape=mxgraph.networks.virtual_server;" parent="DsYPTLE4mmZd2FAX2YWv-1" vertex="1">
          <mxGeometry x="570" y="220" width="110" height="120" as="geometry" />
        </mxCell>
        <mxCell id="y-bNRI4iz__ci6y5194C-20" value="" style="aspect=fixed;pointerEvents=1;shadow=0;dashed=0;html=1;strokeColor=none;labelPosition=center;verticalLabelPosition=bottom;verticalAlign=top;align=center;fillColor=#00188D;shape=mxgraph.azure.load_balancer_generic" parent="DsYPTLE4mmZd2FAX2YWv-1" vertex="1">
          <mxGeometry x="377" y="60" width="37" height="50" as="geometry" />
        </mxCell>
        <mxCell id="y-bNRI4iz__ci6y5194C-23" value="" style="fontColor=#0066CC;verticalAlign=top;verticalLabelPosition=bottom;labelPosition=center;align=center;html=1;outlineConnect=0;fillColor=#CCCCCC;strokeColor=#6881B3;gradientColor=none;gradientDirection=north;strokeWidth=2;shape=mxgraph.networks.virtual_server;" parent="DsYPTLE4mmZd2FAX2YWv-1" vertex="1">
          <mxGeometry x="100" y="410" width="110" height="120" as="geometry" />
        </mxCell>
        <mxCell id="y-bNRI4iz__ci6y5194C-24" value="" style="fontColor=#0066CC;verticalAlign=top;verticalLabelPosition=bottom;labelPosition=center;align=center;html=1;outlineConnect=0;fillColor=#CCCCCC;strokeColor=#6881B3;gradientColor=none;gradientDirection=north;strokeWidth=2;shape=mxgraph.networks.virtual_server;" parent="DsYPTLE4mmZd2FAX2YWv-1" vertex="1">
          <mxGeometry x="347.2" y="410" width="110" height="120" as="geometry" />
        </mxCell>
        <mxCell id="y-bNRI4iz__ci6y5194C-25" value="" style="fontColor=#0066CC;verticalAlign=top;verticalLabelPosition=bottom;labelPosition=center;align=center;html=1;outlineConnect=0;fillColor=#CCCCCC;strokeColor=#6881B3;gradientColor=none;gradientDirection=north;strokeWidth=2;shape=mxgraph.networks.virtual_server;" parent="DsYPTLE4mmZd2FAX2YWv-1" vertex="1">
          <mxGeometry x="590" y="410" width="110" height="120" as="geometry" />
        </mxCell>
        <mxCell id="y-bNRI4iz__ci6y5194C-26" value="" style="endArrow=classic;html=1;" parent="DsYPTLE4mmZd2FAX2YWv-1" edge="1">
          <mxGeometry width="50" height="50" relative="1" as="geometry">
            <mxPoint x="400" y="340" as="sourcePoint" />
            <mxPoint x="400" y="400" as="targetPoint" />
          </mxGeometry>
        </mxCell>
        <mxCell id="y-bNRI4iz__ci6y5194C-27" value="" style="endArrow=classic;html=1;" parent="DsYPTLE4mmZd2FAX2YWv-1" edge="1">
          <mxGeometry width="50" height="50" relative="1" as="geometry">
            <mxPoint x="400" y="350" as="sourcePoint" />
            <mxPoint x="630" y="400" as="targetPoint" />
          </mxGeometry>
        </mxCell>
        <mxCell id="y-bNRI4iz__ci6y5194C-28" value="" style="endArrow=classic;html=1;" parent="DsYPTLE4mmZd2FAX2YWv-1" edge="1">
          <mxGeometry width="50" height="50" relative="1" as="geometry">
            <mxPoint x="400" y="350" as="sourcePoint" />
            <mxPoint x="170" y="400" as="targetPoint" />
          </mxGeometry>
        </mxCell>
        <mxCell id="y-bNRI4iz__ci6y5194C-31" value="" style="endArrow=classic;html=1;exitX=0.5;exitY=1;exitDx=0;exitDy=0;exitPerimeter=0;entryX=0.573;entryY=-0.017;entryDx=0;entryDy=0;entryPerimeter=0;" parent="DsYPTLE4mmZd2FAX2YWv-1" source="y-bNRI4iz__ci6y5194C-10" target="y-bNRI4iz__ci6y5194C-23" edge="1">
          <mxGeometry width="50" height="50" relative="1" as="geometry">
            <mxPoint x="380" y="340" as="sourcePoint" />
            <mxPoint x="430" y="290" as="targetPoint" />
          </mxGeometry>
        </mxCell>
        <mxCell id="y-bNRI4iz__ci6y5194C-32" value="" style="endArrow=classic;html=1;" parent="DsYPTLE4mmZd2FAX2YWv-1" edge="1">
          <mxGeometry width="50" height="50" relative="1" as="geometry">
            <mxPoint x="160" y="340" as="sourcePoint" />
            <mxPoint x="400" y="400" as="targetPoint" />
          </mxGeometry>
        </mxCell>
        <mxCell id="y-bNRI4iz__ci6y5194C-33" value="" style="endArrow=classic;html=1;exitX=0.5;exitY=1;exitDx=0;exitDy=0;exitPerimeter=0;entryX=0.497;entryY=0.421;entryDx=0;entryDy=0;entryPerimeter=0;" parent="DsYPTLE4mmZd2FAX2YWv-1" source="y-bNRI4iz__ci6y5194C-12" target="y-bNRI4iz__ci6y5194C-9" edge="1">
          <mxGeometry width="50" height="50" relative="1" as="geometry">
            <mxPoint x="380" y="340" as="sourcePoint" />
            <mxPoint x="430" y="290" as="targetPoint" />
          </mxGeometry>
        </mxCell>
        <mxCell id="y-bNRI4iz__ci6y5194C-34" value="" style="endArrow=classic;html=1;exitX=0.5;exitY=1;exitDx=0;exitDy=0;exitPerimeter=0;entryX=0.327;entryY=-0.05;entryDx=0;entryDy=0;entryPerimeter=0;" parent="DsYPTLE4mmZd2FAX2YWv-1" source="y-bNRI4iz__ci6y5194C-12" target="y-bNRI4iz__ci6y5194C-25" edge="1">
          <mxGeometry width="50" height="50" relative="1" as="geometry">
            <mxPoint x="380" y="340" as="sourcePoint" />
            <mxPoint x="430" y="290" as="targetPoint" />
          </mxGeometry>
        </mxCell>
        <mxCell id="y-bNRI4iz__ci6y5194C-36" value="" style="aspect=fixed;pointerEvents=1;shadow=0;dashed=0;html=1;strokeColor=none;labelPosition=center;verticalLabelPosition=bottom;verticalAlign=top;align=center;fillColor=#00188D;shape=mxgraph.azure.load_balancer_generic;direction=west;" parent="DsYPTLE4mmZd2FAX2YWv-1" vertex="1">
          <mxGeometry x="390" y="585" width="37" height="50" as="geometry" />
        </mxCell>
        <mxCell id="y-bNRI4iz__ci6y5194C-38" value="" style="endArrow=classic;html=1;exitX=0.49;exitY=1;exitDx=0;exitDy=0;exitPerimeter=0;entryX=0.571;entryY=1.017;entryDx=0;entryDy=0;entryPerimeter=0;" parent="DsYPTLE4mmZd2FAX2YWv-1" source="y-bNRI4iz__ci6y5194C-36" target="y-bNRI4iz__ci6y5194C-24" edge="1">
          <mxGeometry width="50" height="50" relative="1" as="geometry">
            <mxPoint x="380" y="460" as="sourcePoint" />
            <mxPoint x="430" y="410" as="targetPoint" />
          </mxGeometry>
        </mxCell>
        <mxCell id="y-bNRI4iz__ci6y5194C-39" value="" style="endArrow=classic;html=1;exitX=0;exitY=0.71;exitDx=0;exitDy=0;exitPerimeter=0;entryX=0.01;entryY=0.99;entryDx=0;entryDy=0;entryPerimeter=0;" parent="DsYPTLE4mmZd2FAX2YWv-1" source="y-bNRI4iz__ci6y5194C-36" target="y-bNRI4iz__ci6y5194C-25" edge="1">
          <mxGeometry width="50" height="50" relative="1" as="geometry">
            <mxPoint x="380" y="460" as="sourcePoint" />
            <mxPoint x="430" y="410" as="targetPoint" />
          </mxGeometry>
        </mxCell>
        <mxCell id="y-bNRI4iz__ci6y5194C-40" value="" style="endArrow=classic;html=1;exitX=1;exitY=0.71;exitDx=0;exitDy=0;exitPerimeter=0;entryX=0.99;entryY=0.99;entryDx=0;entryDy=0;entryPerimeter=0;" parent="DsYPTLE4mmZd2FAX2YWv-1" source="y-bNRI4iz__ci6y5194C-36" target="y-bNRI4iz__ci6y5194C-23" edge="1">
          <mxGeometry width="50" height="50" relative="1" as="geometry">
            <mxPoint x="380" y="460" as="sourcePoint" />
            <mxPoint x="430" y="410" as="targetPoint" />
          </mxGeometry>
        </mxCell>
        <mxCell id="y-bNRI4iz__ci6y5194C-41" value="" style="endArrow=classic;html=1;exitX=0.49;exitY=1;exitDx=0;exitDy=0;exitPerimeter=0;entryX=0.5;entryY=0;entryDx=0;entryDy=0;entryPerimeter=0;" parent="DsYPTLE4mmZd2FAX2YWv-1" source="y-bNRI4iz__ci6y5194C-20" target="y-bNRI4iz__ci6y5194C-11" edge="1">
          <mxGeometry width="50" height="50" relative="1" as="geometry">
            <mxPoint x="380" y="370" as="sourcePoint" />
            <mxPoint x="430" y="320" as="targetPoint" />
          </mxGeometry>
        </mxCell>
        <mxCell id="y-bNRI4iz__ci6y5194C-42" value="" style="endArrow=classic;html=1;exitX=0;exitY=0.71;exitDx=0;exitDy=0;exitPerimeter=0;" parent="DsYPTLE4mmZd2FAX2YWv-1" source="y-bNRI4iz__ci6y5194C-20" target="y-bNRI4iz__ci6y5194C-10" edge="1">
          <mxGeometry width="50" height="50" relative="1" as="geometry">
            <mxPoint x="380" y="370" as="sourcePoint" />
            <mxPoint x="430" y="320" as="targetPoint" />
          </mxGeometry>
        </mxCell>
        <mxCell id="y-bNRI4iz__ci6y5194C-43" value="" style="endArrow=classic;html=1;exitX=1;exitY=0.71;exitDx=0;exitDy=0;exitPerimeter=0;entryX=0.5;entryY=0;entryDx=0;entryDy=0;entryPerimeter=0;" parent="DsYPTLE4mmZd2FAX2YWv-1" source="y-bNRI4iz__ci6y5194C-20" target="y-bNRI4iz__ci6y5194C-12" edge="1">
          <mxGeometry width="50" height="50" relative="1" as="geometry">
            <mxPoint x="380" y="370" as="sourcePoint" />
            <mxPoint x="430" y="320" as="targetPoint" />
          </mxGeometry>
        </mxCell>
        <mxCell id="y-bNRI4iz__ci6y5194C-44" value="" style="aspect=fixed;perimeter=ellipsePerimeter;html=1;align=center;shadow=0;dashed=0;spacingTop=3;image;image=img/lib/active_directory/web_server.svg;" parent="DsYPTLE4mmZd2FAX2YWv-1" vertex="1">
          <mxGeometry x="382.2" y="10" width="40" height="50" as="geometry" />
        </mxCell>
        <mxCell id="y-bNRI4iz__ci6y5194C-46" value="" style="fontColor=#0066CC;verticalAlign=top;verticalLabelPosition=bottom;labelPosition=center;align=center;html=1;outlineConnect=0;fillColor=#CCCCCC;strokeColor=#6881B3;gradientColor=none;gradientDirection=north;strokeWidth=2;shape=mxgraph.networks.virtual_server;" parent="DsYPTLE4mmZd2FAX2YWv-1" vertex="1">
          <mxGeometry x="220" y="585" width="110" height="120" as="geometry" />
        </mxCell>
        <mxCell id="y-bNRI4iz__ci6y5194C-48" value="" style="outlineConnect=0;fontColor=#232F3E;gradientColor=none;fillColor=#277116;strokeColor=none;dashed=0;verticalLabelPosition=bottom;verticalAlign=top;align=center;html=1;fontSize=12;fontStyle=0;aspect=fixed;pointerEvents=1;shape=mxgraph.aws4.bucket;" parent="DsYPTLE4mmZd2FAX2YWv-1" vertex="1">
          <mxGeometry x="80" y="886.25" width="75" height="78" as="geometry" />
        </mxCell>
        <mxCell id="y-bNRI4iz__ci6y5194C-49" value="Cloud&#xa;DNS" style="html=1;fillColor=#5184F3;strokeColor=none;verticalAlign=top;labelPosition=center;verticalLabelPosition=bottom;align=center;spacingTop=-6;fontSize=11;fontStyle=1;fontColor=#999999;shape=mxgraph.gcp2.hexIcon;prIcon=cloud_dns" parent="DsYPTLE4mmZd2FAX2YWv-1" vertex="1">
          <mxGeometry x="640" y="886.25" width="88" height="78" as="geometry" />
        </mxCell>
        <mxCell id="y-bNRI4iz__ci6y5194C-51" value="" style="shape=image;html=1;verticalAlign=top;verticalLabelPosition=bottom;labelBackgroundColor=#ffffff;imageAspect=0;aspect=fixed;image=https://cdn1.iconfinder.com/data/icons/windows8_icons_iconpharm/26/cloudflare.png" parent="DsYPTLE4mmZd2FAX2YWv-1" vertex="1">
          <mxGeometry x="355.75" y="886.25" width="105.5" height="105.5" as="geometry" />
        </mxCell>
        <mxCell id="y-bNRI4iz__ci6y5194C-52" value="" style="outlineConnect=0;dashed=0;verticalLabelPosition=bottom;verticalAlign=top;align=center;html=1;shape=mxgraph.aws3.route_53;fillColor=#F58536;gradientColor=none;" parent="DsYPTLE4mmZd2FAX2YWv-1" vertex="1">
          <mxGeometry x="80" y="1050" width="70.5" height="85.5" as="geometry" />
        </mxCell>
        <mxCell id="y-bNRI4iz__ci6y5194C-55" value="" style="endArrow=classic;html=1;" parent="DsYPTLE4mmZd2FAX2YWv-1" source="y-bNRI4iz__ci6y5194C-52" target="y-bNRI4iz__ci6y5194C-48" edge="1">
          <mxGeometry width="50" height="50" relative="1" as="geometry">
            <mxPoint x="380" y="900" as="sourcePoint" />
            <mxPoint x="430" y="850" as="targetPoint" />
          </mxGeometry>
        </mxCell>
        <mxCell id="y-bNRI4iz__ci6y5194C-56" value="" style="endArrow=none;html=1;" parent="DsYPTLE4mmZd2FAX2YWv-1" edge="1">
          <mxGeometry width="50" height="50" relative="1" as="geometry">
            <mxPoint x="120" y="880" as="sourcePoint" />
            <mxPoint x="410" y="810" as="targetPoint" />
            <Array as="points">
              <mxPoint x="120" y="810" />
            </Array>
          </mxGeometry>
        </mxCell>
        <mxCell id="y-bNRI4iz__ci6y5194C-57" value="" style="endArrow=none;html=1;" parent="DsYPTLE4mmZd2FAX2YWv-1" edge="1">
          <mxGeometry width="50" height="50" relative="1" as="geometry">
            <mxPoint x="410" y="880" as="sourcePoint" />
            <mxPoint x="410" y="810" as="targetPoint" />
            <Array as="points">
              <mxPoint x="410" y="840" />
            </Array>
          </mxGeometry>
        </mxCell>
        <mxCell id="y-bNRI4iz__ci6y5194C-58" value="" style="endArrow=none;html=1;entryX=0.5;entryY=0.16;entryDx=0;entryDy=0;entryPerimeter=0;" parent="DsYPTLE4mmZd2FAX2YWv-1" target="y-bNRI4iz__ci6y5194C-49" edge="1">
          <mxGeometry width="50" height="50" relative="1" as="geometry">
            <mxPoint x="410" y="810" as="sourcePoint" />
            <mxPoint x="430" y="850" as="targetPoint" />
            <Array as="points">
              <mxPoint x="684" y="810" />
            </Array>
          </mxGeometry>
        </mxCell>
        <mxCell id="y-bNRI4iz__ci6y5194C-59" value="" style="endArrow=classic;html=1;" parent="DsYPTLE4mmZd2FAX2YWv-1" edge="1">
          <mxGeometry width="50" height="50" relative="1" as="geometry">
            <mxPoint x="409" y="810" as="sourcePoint" />
            <mxPoint x="409" y="639" as="targetPoint" />
          </mxGeometry>
        </mxCell>
        <mxCell id="y-bNRI4iz__ci6y5194C-60" value="" style="endArrow=classic;html=1;entryX=-0.009;entryY=0.45;entryDx=0;entryDy=0;entryPerimeter=0;" parent="DsYPTLE4mmZd2FAX2YWv-1" target="y-bNRI4iz__ci6y5194C-46" edge="1">
          <mxGeometry width="50" height="50" relative="1" as="geometry">
            <mxPoint x="150" y="530" as="sourcePoint" />
            <mxPoint x="430" y="510" as="targetPoint" />
            <Array as="points">
              <mxPoint x="150" y="640" />
            </Array>
          </mxGeometry>
        </mxCell>
        <mxCell id="y-bNRI4iz__ci6y5194C-61" value="" style="endArrow=classic;html=1;entryX=1;entryY=0.5;entryDx=0;entryDy=0;entryPerimeter=0;exitX=0.289;exitY=0.983;exitDx=0;exitDy=0;exitPerimeter=0;" parent="DsYPTLE4mmZd2FAX2YWv-1" source="y-bNRI4iz__ci6y5194C-24" target="y-bNRI4iz__ci6y5194C-46" edge="1">
          <mxGeometry width="50" height="50" relative="1" as="geometry">
            <mxPoint x="400" y="530" as="sourcePoint" />
            <mxPoint x="430" y="500" as="targetPoint" />
            <Array as="points">
              <mxPoint x="380" y="645" />
            </Array>
          </mxGeometry>
        </mxCell>
        <mxCell id="y-bNRI4iz__ci6y5194C-62" value="" style="endArrow=classic;html=1;exitX=0.5;exitY=1;exitDx=0;exitDy=0;exitPerimeter=0;entryX=1.018;entryY=0.883;entryDx=0;entryDy=0;entryPerimeter=0;" parent="DsYPTLE4mmZd2FAX2YWv-1" source="y-bNRI4iz__ci6y5194C-25" target="y-bNRI4iz__ci6y5194C-46" edge="1">
          <mxGeometry width="50" height="50" relative="1" as="geometry">
            <mxPoint x="380" y="550" as="sourcePoint" />
            <mxPoint x="430" y="500" as="targetPoint" />
            <Array as="points">
              <mxPoint x="645" y="690" />
            </Array>
          </mxGeometry>
        </mxCell>
        <mxCell id="y-bNRI4iz__ci6y5194C-64" value="etc,cntrl pnl" style="text;html=1;strokeColor=none;fillColor=none;align=center;verticalAlign=middle;whiteSpace=wrap;rounded=0;" parent="DsYPTLE4mmZd2FAX2YWv-1" vertex="1">
          <mxGeometry x="10" y="270" width="100" height="20" as="geometry" />
        </mxCell>
        <mxCell id="y-bNRI4iz__ci6y5194C-65" value="etc,cntrl pnl" style="text;html=1;strokeColor=none;fillColor=none;align=center;verticalAlign=middle;whiteSpace=wrap;rounded=0;" parent="DsYPTLE4mmZd2FAX2YWv-1" vertex="1">
          <mxGeometry x="247.2" y="270" width="100" height="20" as="geometry" />
        </mxCell>
        <mxCell id="y-bNRI4iz__ci6y5194C-66" value="etc,cntrl pnl" style="text;html=1;strokeColor=none;fillColor=none;align=center;verticalAlign=middle;whiteSpace=wrap;rounded=0;" parent="DsYPTLE4mmZd2FAX2YWv-1" vertex="1">
          <mxGeometry x="480" y="270" width="100" height="20" as="geometry" />
        </mxCell>
        <mxCell id="y-bNRI4iz__ci6y5194C-67" value="worker node" style="text;html=1;strokeColor=none;fillColor=none;align=center;verticalAlign=middle;whiteSpace=wrap;rounded=0;" parent="DsYPTLE4mmZd2FAX2YWv-1" vertex="1">
          <mxGeometry x="10" y="450" width="80" height="20" as="geometry" />
        </mxCell>
        <mxCell id="y-bNRI4iz__ci6y5194C-68" value="worker node" style="text;html=1;strokeColor=none;fillColor=none;align=center;verticalAlign=middle;whiteSpace=wrap;rounded=0;" parent="DsYPTLE4mmZd2FAX2YWv-1" vertex="1">
          <mxGeometry x="250" y="450" width="80" height="20" as="geometry" />
        </mxCell>
        <mxCell id="y-bNRI4iz__ci6y5194C-69" value="worker node" style="text;html=1;strokeColor=none;fillColor=none;align=center;verticalAlign=middle;whiteSpace=wrap;rounded=0;" parent="DsYPTLE4mmZd2FAX2YWv-1" vertex="1">
          <mxGeometry x="490" y="460" width="80" height="20" as="geometry" />
        </mxCell>
        <mxCell id="y-bNRI4iz__ci6y5194C-70" value="mysql, mongo,redis" style="text;html=1;strokeColor=none;fillColor=none;align=center;verticalAlign=middle;whiteSpace=wrap;rounded=0;" parent="DsYPTLE4mmZd2FAX2YWv-1" vertex="1">
          <mxGeometry x="80" y="650" width="115" height="20" as="geometry" />
        </mxCell>
        <mxCell id="y-bNRI4iz__ci6y5194C-71" value="Rancher Web" style="text;html=1;strokeColor=none;fillColor=none;align=center;verticalAlign=middle;whiteSpace=wrap;rounded=0;" parent="DsYPTLE4mmZd2FAX2YWv-1" vertex="1">
          <mxGeometry x="400" y="30" width="130" height="20" as="geometry" />
        </mxCell>
        <mxCell id="y-bNRI4iz__ci6y5194C-72" value="cloud flare" style="text;html=1;strokeColor=none;fillColor=none;align=center;verticalAlign=middle;whiteSpace=wrap;rounded=0;" parent="DsYPTLE4mmZd2FAX2YWv-1" vertex="1">
          <mxGeometry x="354" y="971.75" width="120" height="20" as="geometry" />
        </mxCell>
        <mxCell id="y-bNRI4iz__ci6y5194C-73" value="route 53" style="text;html=1;strokeColor=none;fillColor=none;align=center;verticalAlign=middle;whiteSpace=wrap;rounded=0;" parent="DsYPTLE4mmZd2FAX2YWv-1" vertex="1">
          <mxGeometry x="110" y="1082.75" width="145" height="20" as="geometry" />
        </mxCell>
        <mxCell id="CmzFLiMbZQjglJ-_73aP-0" value="" style="fontColor=#0066CC;verticalAlign=top;verticalLabelPosition=bottom;labelPosition=center;align=center;html=1;outlineConnect=0;fillColor=#CCCCCC;strokeColor=#6881B3;gradientColor=none;gradientDirection=north;strokeWidth=2;shape=mxgraph.networks.virtual_server;" vertex="1" parent="DsYPTLE4mmZd2FAX2YWv-1">
          <mxGeometry x="660" y="580" width="110" height="120" as="geometry" />
        </mxCell>
        <mxCell id="CmzFLiMbZQjglJ-_73aP-1" value="database server replica" style="text;html=1;strokeColor=none;fillColor=none;align=center;verticalAlign=middle;whiteSpace=wrap;rounded=0;" vertex="1" parent="DsYPTLE4mmZd2FAX2YWv-1">
          <mxGeometry x="630" y="705" width="120" height="20" as="geometry" />
        </mxCell>
        <mxCell id="CmzFLiMbZQjglJ-_73aP-2" value="" style="endArrow=classic;html=1;exitX=0.99;exitY=0.99;exitDx=0;exitDy=0;exitPerimeter=0;entryX=0.01;entryY=0.99;entryDx=0;entryDy=0;entryPerimeter=0;" edge="1" parent="DsYPTLE4mmZd2FAX2YWv-1" source="y-bNRI4iz__ci6y5194C-46" target="CmzFLiMbZQjglJ-_73aP-0">
          <mxGeometry width="50" height="50" relative="1" as="geometry">
            <mxPoint x="410" y="510" as="sourcePoint" />
            <mxPoint x="460" y="460" as="targetPoint" />
          </mxGeometry>
        </mxCell>
      </root>
    </mxGraphModel>
  </diagram>
</mxfile>
